# xmcd
#
# Track frame offsets: 
#        150
#        19703
#        31529
#        45999
#        61488
#        77723
#        93875
#        132916
#        148903
#        160392
#        170872
#
# Disc length: 2490 seconds
#
# Revision: 1
# Processed by: cddbd v1.5.2PL0 Copyright (c) Steve Scherf et al.
# Submitted via: ExactAudioCopy v0.99pb4
#
DISCID=8a09b80b
DTITLE=The Minor Times - Summer Of Wolves
DYEAR=2007
DGENRE=Metal
TTITLE0=+++
TTITLE1=Casket City Lights
TTITLE2=Van Zant
TTITLE3=Ladder Devils
TTITLE4=Blackhole Living
TTITLE5=Amazing Grace
TTITLE6=This is The Blues
TTITLE7=Bring In The Suit
TTITLE8=This is a Fine Life You've Made For Yourself
TTITLE9=Fire Spitter
TTITLE10=Disappear Here
EXTD=YEAR: 2007
EXTT0=
EXTT1=
EXTT2=
EXTT3=
EXTT4=
EXTT5=
EXTT6=
EXTT7=
EXTT8=
EXTT9=
EXTT10=
PLAYORDER=
